<svg width="40" height="41" viewBox="0 0 40 41" fill="none" xmlns="http://www.w3.org/2000/svg">
<path d="M20 21.57C22.7167 21.57 25.1167 22.22 27.0667 23.07C28.8667 23.87 30 25.67 30 27.62V30.32H10V27.6367C10 25.67 11.1333 23.87 12.9333 23.0867C14.8833 22.22 17.2833 21.57 20 21.57ZM6.66667 21.9867C8.5 21.9867 10 20.4867 10 18.6533C10 16.82 8.5 15.32 6.66667 15.32C4.83333 15.32 3.33333 16.82 3.33333 18.6533C3.33333 20.4867 4.83333 21.9867 6.66667 21.9867ZM8.55 23.82C7.93333 23.72 7.31667 23.6533 6.66667 23.6533C5.01667 23.6533 3.45 24.0033 2.03333 24.62C0.8 25.1533 0 26.3533 0 27.7033V30.32H7.5V27.6367C7.5 26.2533 7.88333 24.9533 8.55 23.82ZM33.3333 21.9867C35.1667 21.9867 36.6667 20.4867 36.6667 18.6533C36.6667 16.82 35.1667 15.32 33.3333 15.32C31.5 15.32 30 16.82 30 18.6533C30 20.4867 31.5 21.9867 33.3333 21.9867ZM40 27.7033C40 26.3533 39.2 25.1533 37.9667 24.62C36.55 24.0033 34.9833 23.6533 33.3333 23.6533C32.6833 23.6533 32.0667 23.72 31.45 23.82C32.1167 24.9533 32.5 26.2533 32.5 27.6367V30.32H40V27.7033ZM20 10.32C22.7667 10.32 25 12.5533 25 15.32C25 18.0867 22.7667 20.32 20 20.32C17.2333 20.32 15 18.0867 15 15.32C15 12.5533 17.2333 10.32 20 10.32Z" fill="#04435E"/>
</svg>
