<svg width="40" height="41" viewBox="0 0 40 41" fill="none" xmlns="http://www.w3.org/2000/svg">
<g clip-path="url(#clip0_218_927)">
<path d="M37.3021 12.2862L21.8378 0.897672C20.8388 0.138439 19.2004 0.138439 18.2014 0.897672L2.73706 12.2862C1.81799 12.9655 1.13867 14.2842 1.13867 15.443V37.7005C1.13867 39.139 2.2975 40.2979 3.73605 40.2979H36.2632C37.7417 40.2979 38.9005 39.139 38.9005 37.7005V15.443C38.9005 14.2842 38.2212 12.9655 37.3021 12.2862ZM3.73605 37.7005V15.443C3.73605 15.1233 4.01577 14.5639 4.25552 14.404L19.7199 2.97557C19.7599 2.97557 19.8797 2.93561 19.9996 2.93561C20.1195 2.93561 20.2394 2.97557 20.2793 2.97557L35.7437 14.404C36.0234 14.5639 36.2632 15.1233 36.2632 15.443V37.7005H3.73605ZM14.8848 15.6428H18.3213C18.5211 15.6428 18.7209 15.8026 18.7209 16.0424V19.4389C18.7209 19.6787 18.9207 19.8785 19.1205 19.8785H21.9976C22.1974 19.8785 22.3972 19.6787 22.3972 19.4389V16.0424C22.3972 15.8026 22.597 15.6428 22.7968 15.6428H26.2333C26.4331 15.6428 26.6329 15.443 26.6329 15.2032V12.3661C26.6329 12.1263 26.4331 11.9665 26.2333 11.9665H22.7968C22.597 11.9665 22.3972 11.7667 22.3972 11.5669V8.13037C22.3972 7.89061 22.1974 7.73077 21.9976 7.73077H19.1205C18.9207 7.73077 18.7209 7.89061 18.7209 8.13037V11.5269C18.7209 11.7667 18.5211 11.9665 18.3213 11.9665H14.8848C14.685 11.9665 14.4852 12.1263 14.4852 12.3661V15.2032C14.4852 15.443 14.685 15.6428 14.8848 15.6428ZM32.7068 23.9544C32.1873 23.9544 31.7877 24.314 31.7078 24.7935V29.7885H30.3092V29.2291C30.3092 28.9094 29.7098 28.6297 28.9905 28.6297H11.688L11.6081 28.5897C11.0087 27.8305 10.0896 27.3909 9.21052 27.3909V21.7566C9.21052 21.0373 8.61112 20.4379 7.89185 20.4379C7.17258 20.4379 6.57318 21.0373 6.57318 21.7566V35.5826C6.57318 36.3019 7.17258 36.8613 7.89185 36.8613C8.61112 36.8613 9.21052 36.3019 9.21052 35.5826V31.8664H10.5691V32.6256C10.5691 33.0252 11.0886 33.6646 11.7679 33.8244C14.8049 34.6236 20.5591 34.1441 22.3173 33.3449C23.7558 32.7455 27.1524 32.9853 28.9905 33.1851C29.7098 33.265 30.3092 33.0252 30.3092 32.6256V31.8664H31.7078V35.5826C31.7078 36.1021 32.1474 36.5417 32.7068 36.5417C33.2263 36.5417 33.6658 36.1021 33.6658 35.5826V24.7935C33.5859 24.314 33.1863 23.9544 32.7068 23.9544Z" fill="black"/>
</g>
<defs>
<clipPath id="clip0_218_927">
<rect width="40" height="40" fill="white" transform="translate(0 0.320007)"/>
</clipPath>
</defs>
</svg>
