<svg width="40" height="41" viewBox="0 0 40 41" fill="none" xmlns="http://www.w3.org/2000/svg">
<g clip-path="url(#clip0_218_953)">
<path d="M35.6607 0.320007H18.1607C17.1661 0.320007 16.2123 0.715095 15.509 1.41836C14.8058 2.12162 14.4107 3.07545 14.4107 4.07001V11.57C14.4107 11.9015 14.5424 12.2195 14.7768 12.4539C15.0112 12.6883 15.3291 12.82 15.6607 12.82C15.9922 12.82 16.3101 12.6883 16.5445 12.4539C16.779 12.2195 16.9107 11.9015 16.9107 11.57V4.07001C16.9107 3.73849 17.0424 3.42054 17.2768 3.18612C17.5112 2.9517 17.8291 2.82001 18.1607 2.82001H35.6607C35.9922 2.82001 36.3101 2.9517 36.5445 3.18612C36.779 3.42054 36.9107 3.73849 36.9107 4.07001V37.82H31.9107V29.07C31.9107 28.7385 31.779 28.4205 31.5445 28.1861C31.3101 27.9517 30.9922 27.82 30.6607 27.82H23.1607C22.8291 27.82 22.5112 27.9517 22.2768 28.1861C22.0424 28.4205 21.9107 28.7385 21.9107 29.07V37.82H18.1607C17.8291 37.82 17.5112 37.9517 17.2768 38.1861C17.0424 38.4205 16.9107 38.7385 16.9107 39.07C16.9107 39.4015 17.0424 39.7195 17.2768 39.9539C17.5112 40.1883 17.8291 40.32 18.1607 40.32H39.4107V4.07001C39.4107 3.07545 39.0156 2.12162 38.3123 1.41836C37.6091 0.715095 36.6552 0.320007 35.6607 0.320007ZM24.4107 37.82V30.32H29.4107V37.82H24.4107ZM24.4107 12.82H19.4107V7.82001H24.4107V12.82ZM34.4107 12.82H29.4107V7.82001H34.4107V12.82ZM29.4107 17.82H34.4107V22.82H29.4107V17.82ZM20.0232 22.82H24.4107V17.82H19.4107V21.635C18.9754 20.8313 18.432 20.0911 17.7957 19.435C15.9021 17.545 13.336 16.4836 10.6607 16.4836C7.9853 16.4836 5.41923 17.545 3.52567 19.435C1.63569 21.3286 0.574219 23.8946 0.574219 26.57C0.574219 29.2454 1.63569 31.8114 3.52567 33.705L9.77567 39.955C9.89196 40.071 10.03 40.163 10.1818 40.2256C10.3337 40.2882 10.4964 40.3203 10.6607 40.32C10.8249 40.3203 10.9876 40.2882 11.1395 40.2256C11.2913 40.163 11.4294 40.071 11.5457 39.955L17.7957 33.705C19.1904 32.3071 20.1447 30.5309 20.5406 28.5963C20.9365 26.6617 20.7566 24.6535 20.0232 22.82ZM10.6607 37.3025L5.29567 31.935C3.87407 30.5114 3.07558 28.5818 3.07558 26.57C3.07558 24.5582 3.87407 22.6286 5.29567 21.205C5.99917 20.4992 6.83543 19.9397 7.75623 19.5587C8.67703 19.1776 9.66415 18.9827 10.6607 18.985C11.6572 18.9827 12.6443 19.1776 13.5651 19.5587C14.4859 19.9397 15.3222 20.4992 16.0257 21.205C17.4473 22.6286 18.2458 24.5582 18.2458 26.57C18.2458 28.5818 17.4473 30.5114 16.0257 31.935L10.6607 37.3025ZM14.4107 26.57C14.4107 27.5646 14.0156 28.5184 13.3123 29.2217C12.6091 29.9249 11.6552 30.32 10.6607 30.32C9.66611 30.32 8.71228 29.9249 8.00902 29.2217C7.30576 28.5184 6.91067 27.5646 6.91067 26.57C6.91067 25.5754 7.30576 24.6216 8.00902 23.9184C8.71228 23.2151 9.66611 22.82 10.6607 22.82C11.6552 22.82 12.6091 23.2151 13.3123 23.9184C14.0156 24.6216 14.4107 25.5754 14.4107 26.57Z" fill="black"/>
</g>
<defs>
<clipPath id="clip0_218_953">
<rect width="40" height="40" fill="white" transform="translate(0 0.320007)"/>
</clipPath>
</defs>
</svg>
