<svg width="50" height="51" viewBox="0 0 50 51" fill="none" xmlns="http://www.w3.org/2000/svg">
<path d="M25.4575 42.2344C25.0825 42.6094 24.4159 42.6719 23.9784 42.2344C23.6034 41.8594 23.5409 41.1927 23.9784 40.7552L31.0409 33.6927L28.1034 30.7552L21.0409 37.8177C20.645 38.2344 19.9784 38.2135 19.5617 37.8177C19.1242 37.3802 19.1867 36.7135 19.5617 36.3385L26.6242 29.276L23.6867 26.3385L16.6242 33.401C16.2492 33.776 15.5825 33.8385 15.145 33.401C14.7492 33.0052 14.7492 32.3385 15.145 31.9219L22.2075 24.8594L19.2492 21.9219L12.1867 28.9844C11.8117 29.3594 11.145 29.4219 10.7075 28.9844C10.3117 28.5677 10.3117 27.9219 10.7075 27.5052L19.8325 18.3802L23.7284 22.2552C25.7075 24.2344 29.1242 24.2135 31.1034 22.2552C33.145 20.2135 33.145 16.9219 31.1034 14.8802L27.2284 11.0052L27.8117 10.4219C29.4367 8.79687 32.0825 8.79687 33.7075 10.4219L42.5409 19.2552C44.1659 20.8802 44.1659 23.526 42.5409 25.151L25.4575 42.2344ZM45.4784 28.1094C48.7284 24.8594 48.7284 19.5885 45.4784 16.3177L36.645 7.48437C33.395 4.23438 28.1242 4.23438 24.8534 7.48437L24.27 8.06771L23.6867 7.48437C20.4367 4.23438 15.1659 4.23438 11.895 7.48437L4.52005 14.8594C1.56172 17.8177 1.29088 22.4219 3.68671 25.6719L6.70755 22.651C5.89505 21.0885 6.16588 19.1094 7.47838 17.7969L14.8534 10.4219C16.4784 8.79687 19.1242 8.79687 20.7492 10.4219L28.1659 17.8385C28.5409 18.2135 28.6034 18.8802 28.1659 19.3177C27.7284 19.7552 27.0617 19.6927 26.6867 19.3177L19.8325 12.4844L7.74922 24.5469C5.70755 26.5677 5.70755 29.8802 7.74922 31.9219C8.56172 32.7344 9.60338 33.2344 10.7075 33.3802C10.8534 34.4635 11.3325 35.5052 12.1659 36.3385C12.9992 37.1719 14.0409 37.651 15.1242 37.7969C15.27 38.8802 15.7492 39.9219 16.5825 40.7552C17.4159 41.5885 18.4575 42.0677 19.5409 42.2135C19.6867 43.3385 20.1867 44.3594 20.9992 45.1719C21.9784 46.151 23.2909 46.6927 24.6867 46.6927C26.0825 46.6927 27.395 46.151 28.3742 45.1719L45.4784 28.1094Z" fill="#04435E"/>
</svg>
