<svg width="40" height="41" viewBox="0 0 40 41" fill="none" xmlns="http://www.w3.org/2000/svg">
<g clip-path="url(#clip0_218_937)">
<path d="M31.0288 17.312C31.0288 17.312 31.5528 22.619 32.0008 22.32C33.5008 21.32 33.8348 18.722 33.8348 15.13C33.8348 8.38403 25.2958 6.86003 22.3428 6.46603C17.5008 5.82003 17.8108 10.266 17.4328 10.392C11.2828 15.377 16.0008 22.32 16.0008 22.32C16.0008 22.32 16.8398 13.947 20.0228 14.134C26.0108 18.122 31.0288 17.312 31.0288 17.312Z" fill="#333333"/>
<path fill-rule="evenodd" clip-rule="evenodd" d="M14.433 33.762C13.8297 34.1316 13.3764 34.7025 13.1532 35.3739C12.9301 36.0453 12.9514 36.774 13.2134 37.4312C13.4755 38.0884 13.9613 38.6319 14.5852 38.9656C15.2091 39.2993 15.9309 39.4017 16.623 39.2548C17.3151 39.1079 17.933 38.7211 18.3675 38.1628C18.8021 37.6045 19.0253 36.9105 18.9978 36.2035C18.9703 35.4965 18.6938 34.822 18.2172 34.2991C17.7405 33.7763 17.0944 33.4387 16.393 33.346C16.3555 33.2115 16.3212 33.0761 16.29 32.94C16.1538 32.3224 16.0471 31.6987 15.97 31.071C15.8873 30.4362 15.8406 29.7971 15.83 29.157C15.8284 28.9812 15.8334 28.8054 15.845 28.63C16.2297 28.5194 16.6147 28.4204 17 28.333C17.441 28.233 17.702 28.753 17.914 29.175L18 29.344H29.749C29.977 28.91 30.497 28.218 31 28.333C31.5367 28.4557 32.073 28.6 32.609 28.766L32.606 28.767C32.604 28.765 32.604 28.7657 32.606 28.769C32.61 28.783 32.632 28.848 32.654 28.989C32.6793 29.1517 32.696 29.36 32.704 29.614C32.7129 30.1933 32.6882 30.7726 32.63 31.349C32.57 31.966 32.481 32.563 32.381 33.034C32.359 33.1387 32.337 33.234 32.315 33.32H31C30.8143 33.3201 30.6324 33.3719 30.4745 33.4696C30.3166 33.5672 30.189 33.7069 30.106 33.873L29.106 35.873C29.0365 36.0118 29.0002 36.1648 29 36.32V38.32C29 38.5852 29.1054 38.8396 29.2929 39.0271C29.4804 39.2147 29.7348 39.32 30 39.32H32V37.32H31V36.556L31.618 35.32H34.382L35 36.556V37.32H34V39.32H36C36.2652 39.32 36.5196 39.2147 36.7071 39.0271C36.8946 38.8396 37 38.5852 37 38.32V36.32C36.9998 36.1648 36.9635 36.0118 36.894 35.873L35.894 33.873C35.811 33.7069 35.6834 33.5672 35.5255 33.4696C35.3676 33.3719 35.1857 33.3201 35 33.32H34.364C34.471 32.787 34.56 32.165 34.62 31.541C34.686 30.867 34.72 30.168 34.703 29.558L34.702 29.53C38.689 31.215 42 33.986 42 36.89V42.32H6V36.89C6 33.858 9.61 30.97 13.831 29.313C13.842 29.935 13.901 30.638 13.986 31.319C14.078 32.053 14.203 32.785 14.341 33.387C14.3703 33.5164 14.401 33.6414 14.433 33.762ZM16 37.335C16.538 37.335 17 36.895 17 36.32C17 35.746 16.538 35.305 16 35.305C15.462 35.305 15 35.745 15 36.32C15 36.894 15.462 37.335 16 37.335Z" fill="#333333"/>
<mask id="mask0_218_937" style="mask-type:luminance" maskUnits="userSpaceOnUse" x="6" y="28" width="36" height="15">
<path fill-rule="evenodd" clip-rule="evenodd" d="M14.433 33.762C13.8297 34.1316 13.3764 34.7025 13.1532 35.3739C12.9301 36.0453 12.9514 36.774 13.2134 37.4312C13.4755 38.0884 13.9613 38.6319 14.5852 38.9656C15.2091 39.2993 15.9309 39.4017 16.623 39.2548C17.3151 39.1079 17.933 38.7211 18.3675 38.1628C18.8021 37.6045 19.0253 36.9105 18.9978 36.2035C18.9703 35.4965 18.6938 34.822 18.2172 34.2991C17.7405 33.7763 17.0944 33.4387 16.393 33.346C16.3555 33.2115 16.3212 33.0761 16.29 32.94C16.1538 32.3224 16.0471 31.6987 15.97 31.071C15.8873 30.4362 15.8406 29.7971 15.83 29.157C15.8284 28.9812 15.8334 28.8054 15.845 28.63C16.2297 28.5194 16.6147 28.4204 17 28.333C17.441 28.233 17.702 28.753 17.914 29.175L18 29.344H29.749C29.977 28.91 30.497 28.218 31 28.333C31.5367 28.4557 32.073 28.6 32.609 28.766L32.606 28.767C32.604 28.765 32.604 28.7657 32.606 28.769C32.61 28.783 32.632 28.848 32.654 28.989C32.6793 29.1517 32.696 29.36 32.704 29.614C32.7129 30.1933 32.6882 30.7726 32.63 31.349C32.57 31.966 32.481 32.563 32.381 33.034C32.359 33.1387 32.337 33.234 32.315 33.32H31C30.8143 33.3201 30.6324 33.3719 30.4745 33.4696C30.3166 33.5672 30.189 33.7069 30.106 33.873L29.106 35.873C29.0365 36.0118 29.0002 36.1648 29 36.32V38.32C29 38.5852 29.1054 38.8396 29.2929 39.0271C29.4804 39.2147 29.7348 39.32 30 39.32H32V37.32H31V36.556L31.618 35.32H34.382L35 36.556V37.32H34V39.32H36C36.2652 39.32 36.5196 39.2147 36.7071 39.0271C36.8946 38.8396 37 38.5852 37 38.32V36.32C36.9998 36.1648 36.9635 36.0118 36.894 35.873L35.894 33.873C35.811 33.7069 35.6834 33.5672 35.5255 33.4696C35.3676 33.3719 35.1857 33.3201 35 33.32H34.364C34.471 32.787 34.56 32.165 34.62 31.541C34.686 30.867 34.72 30.168 34.703 29.558L34.702 29.53C38.689 31.215 42 33.986 42 36.89V42.32H6V36.89C6 33.858 9.61 30.97 13.831 29.313C13.842 29.935 13.901 30.638 13.986 31.319C14.078 32.053 14.203 32.785 14.341 33.387C14.3703 33.5164 14.401 33.6414 14.433 33.762ZM16 37.335C16.538 37.335 17 36.895 17 36.32C17 35.746 16.538 35.305 16 35.305C15.462 35.305 15 35.745 15 36.32C15 36.894 15.462 37.335 16 37.335Z" fill="white"/>
</mask>
<g mask="url(#mask0_218_937)">
<path d="M14.433 33.762L15.479 35.466L16.746 34.688L16.366 33.251L14.433 33.762ZM16.392 33.345L14.466 33.883L14.821 35.157L16.133 35.328L16.392 33.345ZM15.845 28.63L15.293 26.708L13.955 27.092L13.85 28.48L15.845 28.63ZM18 29.344L16.23 30.275L16.793 31.344H18V29.344ZM29.749 29.344V31.344H30.957L31.519 30.275L29.749 29.344ZM32.609 28.765L33.503 30.555L37.953 28.33L33.201 26.855L32.609 28.765ZM32.606 28.767L30.817 29.663L31.713 31.45L33.5 30.556L32.606 28.767ZM32.606 28.769L34.554 28.318L34.532 28.223L34.502 28.131L32.606 28.769ZM32.606 28.769L30.657 29.219L30.679 29.315L30.711 29.409L32.606 28.769ZM32.606 28.769L34.502 28.131L34.501 28.129L32.606 28.769ZM32.315 33.32V35.32H33.873L34.254 33.81L32.315 33.32ZM32 39.32V41.32H34V39.32H32ZM32 37.32H34V35.32H32V37.32ZM31 37.32H29V39.32H31V37.32ZM31 36.556L29.211 35.662L29 36.084V36.556H31ZM31.618 35.32V33.32H30.382L29.829 34.425L31.618 35.32ZM34.382 35.32L36.171 34.425L35.618 33.32H34.382V35.32ZM35 36.556H37V36.084L36.789 35.662L35 36.556ZM35 37.32V39.32H37V37.32H35ZM34 37.32V35.32H32V37.32H34ZM34 39.32H32V41.32H34V39.32ZM34.364 33.32L32.404 32.927L31.924 35.32H34.364V33.32ZM34.703 29.558L36.702 29.501V29.499L34.703 29.558ZM34.702 29.53L35.48 27.688L32.611 26.476L32.703 29.589L34.702 29.53ZM42 42.32V44.32H44V42.32H42ZM6 42.32H4V44.32H6V42.32ZM13.831 29.313L15.831 29.276L15.778 26.4L13.1 27.451L13.831 29.313ZM15 36.32C15 35.962 15.187 35.645 15.479 35.466L13.386 32.057C12.6569 32.5042 12.0547 33.1309 11.6369 33.8773C11.2192 34.6236 10.9999 35.4647 11 36.32H15ZM16 37.32C15.7348 37.32 15.4804 37.2146 15.2929 37.0271C15.1054 36.8396 15 36.5852 15 36.32H11C11 36.9766 11.1293 37.6268 11.3806 38.2334C11.6319 38.84 12.0002 39.3912 12.4645 39.8555C12.9288 40.3198 13.48 40.6881 14.0866 40.9394C14.6932 41.1907 15.3434 41.32 16 41.32V37.32ZM17 36.32C17 36.5852 16.8946 36.8396 16.7071 37.0271C16.5196 37.2146 16.2652 37.32 16 37.32V41.32C16.6566 41.32 17.3068 41.1907 17.9134 40.9394C18.52 40.6881 19.0712 40.3198 19.5355 39.8555C19.9998 39.3912 20.3681 38.84 20.6194 38.2334C20.8707 37.6268 21 36.9766 21 36.32H17ZM16.133 35.328C16.373 35.3602 16.5932 35.4794 16.7526 35.6617C16.9121 35.8439 17 36.0778 17 36.32H21C21.0001 35.1064 20.5588 33.9342 19.7585 33.022C18.9581 32.1098 17.8533 31.5198 16.65 31.362L16.133 35.328ZM18.318 32.808C18.2896 32.7039 18.2636 32.5993 18.24 32.494L14.341 33.387C14.3823 33.5643 14.424 33.7297 14.466 33.883L18.318 32.808ZM18.24 32.494C18.1188 31.9421 18.0237 31.3838 17.955 30.823L13.986 31.319C14.078 32.053 14.203 32.785 14.341 33.387L18.24 32.494ZM17.955 30.823C17.8816 30.2658 17.8395 29.7059 17.829 29.144L13.83 29.17C13.834 29.825 13.895 30.585 13.986 31.319L17.955 30.823ZM17.829 29.144C17.8279 29.0229 17.8313 28.9018 17.839 28.781L13.85 28.48C13.8345 28.7097 13.8278 28.9398 13.83 29.17L17.829 29.144ZM16.556 26.383C16.1333 26.4797 15.7123 26.5873 15.293 26.708L16.396 30.552C16.7467 30.452 17.096 30.362 17.444 30.282L16.556 26.383ZM19.702 28.279C19.626 28.126 19.398 27.647 19.058 27.252C18.678 26.812 17.808 26.098 16.556 26.383L17.444 30.282C17.1149 30.3555 16.7709 30.3197 16.464 30.18C16.2982 30.1063 16.1497 29.9986 16.028 29.864C15.986 29.814 15.98 29.795 16.009 29.846C16.038 29.896 16.069 29.958 16.126 30.072L19.702 28.279ZM19.77 28.412L19.702 28.279L16.126 30.072C16.154 30.126 16.191 30.202 16.23 30.275L19.77 28.412ZM22.064 27.344H18V31.344H22.064V27.344ZM23.891 27.344H22.064V31.344H23.89L23.891 27.344ZM25.685 27.344H23.89V31.344H25.684L25.685 27.344ZM29.749 27.344H25.685L25.684 31.344H29.749V27.344ZM31.444 26.383C30.149 26.088 29.211 26.877 28.885 27.191C28.5225 27.5494 28.217 27.9612 27.979 28.412L31.519 30.275C31.5529 30.2104 31.5939 30.1497 31.641 30.094L31.658 30.074C31.658 30.074 31.643 30.089 31.614 30.11C31.5618 30.1466 31.5062 30.178 31.448 30.204C31.167 30.3259 30.8541 30.3536 30.556 30.283L31.444 26.383ZM33.201 26.855C32.62 26.675 32.031 26.517 31.444 26.383L30.556 30.283C31.0413 30.3943 31.528 30.5247 32.016 30.676L33.201 26.855ZM33.5 30.556L33.503 30.554L31.714 26.977L31.711 26.978L33.5 30.556ZM34.502 28.131L34.507 28.15L34.525 28.206C34.5297 28.2213 34.5363 28.2473 34.545 28.284C34.5911 28.47 34.6103 28.6616 34.602 28.853C34.601 28.895 34.599 29.492 34.147 30.039C33.8646 30.381 33.4766 30.6194 33.044 30.7168C32.6114 30.8141 32.1586 30.765 31.757 30.577C31.393 30.407 31.177 30.168 31.138 30.126C31.007 29.984 30.926 29.852 30.916 29.838L30.861 29.745C30.843 29.713 30.829 29.687 30.827 29.681L30.817 29.663L34.394 27.871L34.384 27.851L34.349 27.787L34.293 27.694C34.284 27.679 34.203 27.548 34.071 27.406C34.031 27.363 33.816 27.124 33.451 26.954C33.0494 26.7664 32.5968 26.7175 32.1644 26.8151C31.7319 26.9126 31.3442 27.1511 31.062 27.493C30.611 28.04 30.608 28.637 30.607 28.679C30.599 28.845 30.615 28.975 30.622 29.025C30.6354 29.1264 30.6564 29.2267 30.685 29.325C30.6943 29.3563 30.7003 29.376 30.703 29.384L30.708 29.402L30.71 29.405V29.406L34.502 28.131ZM34.631 28.685C34.6037 28.4969 34.5612 28.3116 34.502 28.131L30.711 29.406L30.704 29.389L30.681 29.309L30.678 29.294L34.631 28.685ZM34.703 29.558C34.6972 29.2658 34.6732 28.9742 34.631 28.685L30.678 29.294C30.686 29.347 30.698 29.469 30.704 29.67L34.703 29.558ZM34.62 31.541C34.686 30.867 34.72 30.168 34.703 29.558L30.704 29.67C30.715 30.068 30.694 30.595 30.639 31.156L34.62 31.541ZM34.338 33.449C34.456 32.889 34.555 32.216 34.62 31.541L30.639 31.156C30.5935 31.6471 30.5221 32.1354 30.425 32.619L34.338 33.449ZM34.254 33.809C34.2842 33.6895 34.3122 33.5695 34.338 33.449L30.425 32.619C30.4099 32.6896 30.3936 32.76 30.376 32.83L34.254 33.809ZM31 35.32H32.315V31.32H31V35.32ZM31.894 34.767C31.811 34.9331 31.6834 35.0728 31.5255 35.1704C31.3676 35.2681 31.1857 35.3199 31 35.32V31.32C30.4429 31.32 29.8969 31.4751 29.423 31.768C28.9492 32.0608 28.5662 32.4798 28.317 32.978L31.894 34.767ZM30.894 36.767L31.894 34.767L28.317 32.978L27.317 34.978L30.894 36.767ZM31 36.32C30.9998 36.4752 30.9635 36.6282 30.894 36.767L27.317 34.978C27.1086 35.3947 27 35.8541 27 36.32H31ZM31 38.32V36.32H27V38.32H31ZM30 37.32C30.2652 37.32 30.5196 37.4254 30.7071 37.6129C30.8946 37.8004 31 38.0548 31 38.32H27C27 39.1156 27.3161 39.8787 27.8787 40.4413C28.4413 41.0039 29.2044 41.32 30 41.32V37.32ZM32 37.32H30V41.32H32V37.32ZM30 37.32V39.32H34V37.32H30ZM31 39.32H32V35.32H31V39.32ZM29 36.556V37.32H33V36.556H29ZM29.83 34.426L29.211 35.662L32.789 37.451L33.407 36.214L29.83 34.426ZM34.382 33.32H31.618L31.617 37.32H34.381L34.382 33.32ZM36.788 35.662L36.17 34.426L32.592 36.214L33.21 37.45L36.788 35.662ZM37 37.32V36.556H33V37.32H37ZM34 39.32H35V35.32H34V39.32ZM36 39.32V37.32H32V39.32H36ZM36 37.32H34V41.32H36V37.32ZM35 38.32C35 38.0548 35.1054 37.8004 35.2929 37.6129C35.4804 37.4254 35.7348 37.32 36 37.32V41.32C36.7957 41.32 37.5587 41.0039 38.1213 40.4413C38.6839 39.8787 39 39.1156 39 38.32H35ZM35 36.32V38.32H39V36.32H35ZM35.106 36.767C35.0365 36.6282 35.0002 36.4752 35 36.32H39C39 35.8541 38.8924 35.3947 38.684 34.978L35.106 36.767ZM34.106 34.767L35.106 36.767L38.684 34.978L37.684 32.978L34.106 34.767ZM35 35.32C34.8143 35.3199 34.6324 35.2681 34.4745 35.1704C34.3166 35.0728 34.189 34.9331 34.106 34.767L37.684 32.978C37.4348 32.4798 37.0508 32.0608 36.577 31.768C36.1031 31.4751 35.5571 31.32 35 31.32V35.32ZM34.364 35.32H35V31.32H34.364V35.32ZM32.63 31.349C32.5806 31.8784 32.5058 32.4051 32.404 32.927L36.325 33.713C36.448 33.103 36.545 32.414 36.611 31.734L32.63 31.349ZM32.704 29.614C32.7132 30.1933 32.6878 30.7726 32.63 31.349L36.611 31.734C36.681 31.004 36.722 30.218 36.701 29.502L32.704 29.614ZM32.703 29.589V29.616L36.702 29.499V29.471L32.703 29.589ZM44 36.889C44 34.662 42.745 32.755 41.228 31.306C39.681 29.83 37.632 28.597 35.48 27.688L33.923 31.372C35.759 32.148 37.359 33.142 38.465 34.199C39.6 35.283 40 36.214 40 36.89L44 36.889ZM44 42.32V36.889L40 36.89V42.32H44ZM6 44.32H42V40.32H6V44.32ZM4 36.89V42.32H8V36.89H4ZM13.1 27.451C10.824 28.345 8.638 29.596 6.983 31.11C5.364 32.59 4 34.566 4 36.89H8C8 36.182 8.44 35.197 9.682 34.061C10.888 32.959 12.617 31.938 14.562 31.175L13.1 27.451ZM11.831 29.349C11.844 30.061 11.912 30.838 12.002 31.566L15.97 31.071C15.8934 30.4754 15.8477 29.8763 15.831 29.276L11.831 29.349ZM12.002 31.566C12.101 32.354 12.235 33.154 12.391 33.833L16.291 32.941C16.1548 32.3231 16.047 31.699 15.97 31.071L12.002 31.566ZM12.391 33.833C12.425 33.981 12.461 34.1277 12.499 34.273L16.366 33.251C16.3413 33.155 16.317 33.0517 16.291 32.941L12.391 33.833ZM15 36.32C15.0021 36.0568 15.1086 35.8052 15.2961 35.6205C15.4836 35.4358 15.7368 35.3331 16 35.335V39.335C17.635 39.335 19 38.007 19 36.32H15ZM16 37.305C15.442 37.305 15 36.859 15 36.32H19C19.0011 35.925 18.9243 35.5337 18.7741 35.1684C18.6239 34.8031 18.4032 34.471 18.1246 34.191C17.846 33.911 17.515 33.6887 17.1504 33.5367C16.7859 33.3846 16.395 33.3059 16 33.305V37.305ZM17 36.32C16.9979 36.5832 16.8914 36.8348 16.7039 37.0195C16.5164 37.2042 16.2632 37.3069 16 37.305V33.305C14.365 33.305 13 34.633 13 36.32H17ZM16 35.335C16.558 35.335 17 35.781 17 36.32H13C12.9989 36.715 13.0757 37.1063 13.2259 37.4716C13.3761 37.8369 13.5968 38.169 13.8754 38.449C14.154 38.729 14.485 38.9513 14.8496 39.1033C15.2141 39.2554 15.605 39.3341 16 39.335V35.335Z" fill="#333333"/>
</g>
</g>
<defs>
<clipPath id="clip0_218_937">
<rect width="40" height="40" fill="white" transform="translate(0 0.320007)"/>
</clipPath>
</defs>
</svg>
